<?xml version="1.0" encoding="utf-8"?>
<svg xmlns="http://www.w3.org/2000/svg"
	xmlns:xlink="http://www.w3.org/1999/xlink"
	width="70px" height="70px" viewBox="0 0 70 70">
<filter filterUnits="objectBoundingBox" x="0.00" y="0.00" width="100.00" height="100.00" id="filter0">
<feFlood flood-color="rgb(255,255,255)" result="coFloodOut1"/>
<feComposite in="coFloodOut1" in2="SourceAlpha" operator="in" result="coOverlay1"/>
<feBlend in="coOverlay1" in2="SourceGraphic" mode="normal" result="colorOverlay1"/>
</filter>
<path fillRule="evenodd" d="M 31.25 18.65C 31.25 18.65 48.97 33.42 48.97 33.42 49.44 33.81 49.71 34.39 49.71 35 49.71 35.61 49.44 36.19 48.97 36.58 48.97 36.58 31.25 51.34 31.25 51.34 30.88 51.66 30.41 51.82 29.93 51.82 29.64 51.82 29.34 51.76 29.06 51.63 28.34 51.29 27.87 50.56 27.87 49.76 27.87 49.76 27.87 20.24 27.87 20.24 27.87 19.44 28.34 18.71 29.06 18.37 29.78 18.03 30.64 18.14 31.25 18.65ZM 31.99 45.36C 31.99 45.36 44.43 35 44.43 35 44.43 35 31.99 24.63 31.99 24.63 31.99 24.63 31.99 45.36 31.99 45.36ZM 59.76 59.76C 53.03 66.48 44.03 70 34.94 70 29.07 70 23.17 68.54 17.83 65.53 16.84 64.97 16.49 63.71 17.05 62.72 17.6 61.73 18.86 61.38 19.85 61.94 31.87 68.7 47.08 66.61 56.85 56.85 68.89 44.8 68.89 25.2 56.85 13.15 44.8 1.1 25.2 1.1 13.15 13.15 1.1 25.2 1.1 44.8 13.15 56.85 13.95 57.65 13.95 58.95 13.15 59.76 12.35 60.56 11.04 60.56 10.24 59.76-3.42 46.1-3.42 23.89 10.24 10.24 23.89-3.42 46.1-3.42 59.76 10.24 73.41 23.89 73.41 46.1 59.76 59.76Z" fill="rgb(0,0,0)" filter="url(#filter0)"/></svg>