<svg xmlns="http://www.w3.org/2000/svg"
	xmlns:xlink="http://www.w3.org/1999/xlink"
	width="26px" height="26px" viewBox="0 0 26 26">
<path d="M 23.5 11.24C 23.5 11.24 21.57 13.17 21.57 13.17 21.57 13.17 18.39 16.36 18.39 16.36 18.23 16.53 18.05 16.68 17.87 16.82 16.1 18.22 13.75 18.52 11.72 17.72 10.97 17.43 10.26 16.97 9.64 16.36 9.64 16.36 12.28 13.71 12.28 13.71 13.24 14.67 14.79 14.67 15.74 13.71 15.74 13.71 17.77 11.69 17.77 11.69 17.77 11.69 20.86 8.6 20.86 8.6 21.81 7.64 21.81 6.09 20.86 5.14 19.9 4.18 18.35 4.18 17.4 5.14 17.4 5.14 14.94 7.59 14.94 7.59 13.41 6.88 11.65 6.76 10.03 7.22 10.03 7.22 14.76 2.49 14.76 2.49 17.16 0.09 21.1 0.09 23.5 2.49 25.92 4.91 25.92 8.84 23.5 11.24ZM 14.26 8.29C 15.01 8.58 15.73 9.04 16.34 9.66 16.34 9.66 13.7 12.3 13.7 12.3 12.74 11.35 11.19 11.35 10.24 12.3 10.24 12.3 5.13 17.42 5.13 17.42 4.17 18.37 4.17 19.92 5.13 20.88 6.08 21.83 7.63 21.83 8.59 20.88 8.59 20.88 10.94 18.52 10.94 18.52 12.95 19.33 13.49 19.39 15.85 18.85 15.85 18.85 11.23 23.52 11.23 23.52 8.82 25.93 4.89 25.93 2.48 23.52 0.08 21.12 0.08 17.18 2.48 14.77 2.48 14.77 7.6 9.66 7.6 9.66 7.67 9.59 7.75 9.5 7.84 9.43 9.63 7.83 12.13 7.44 14.26 8.29Z"/></svg>