<svg xmlns="http://www.w3.org/2000/svg"
	xmlns:xlink="http://www.w3.org/1999/xlink"
	width="26px" height="25px" viewBox="0 0 26 25">
<path d="M 25.46 24.17C 25.14 24.49 24.71 24.65 24.29 24.65 23.87 24.65 23.45 24.49 23.13 24.17 23.13 24.17 18.79 19.9 18.79 19.9 16.9 21.35 14.53 22.22 11.96 22.22 5.79 22.22 0.78 17.28 0.78 11.2 0.78 5.13 5.79 0.19 11.96 0.19 18.12 0.19 23.14 5.13 23.14 11.2 23.14 13.57 22.37 15.76 21.07 17.56 21.07 17.56 25.46 21.88 25.46 21.88 26.1 22.51 26.1 23.54 25.46 24.17ZM 11.96 2.78C 7.24 2.78 3.41 6.56 3.41 11.2 3.41 15.85 7.24 19.63 11.96 19.63 14.06 19.63 15.99 18.87 17.48 17.62 17.94 17.24 18.36 16.81 18.72 16.34 19.84 14.91 20.51 13.13 20.51 11.2 20.51 6.56 16.67 2.78 11.96 2.78ZM 16.81 9.58C 16.62 9.67 16.43 9.71 16.23 9.71 15.75 9.71 15.28 9.44 15.05 8.98 14.35 7.56 12.91 6.67 11.3 6.67 10.58 6.67 9.99 6.09 9.99 5.38 9.99 4.66 10.58 4.08 11.3 4.08 13.92 4.08 16.27 5.52 17.42 7.85 17.74 8.49 17.46 9.27 16.81 9.58Z"/></svg>